<?xml version="1.0" encoding="iso-8859-1"?>
<!-- Generator: Adobe Illustrator 19.0.0, SVG Export Plug-In . SVG Version: 6.00 Build 0)  -->
<svg version="1.1" id="Layer_1" xmlns="http://www.w3.org/2000/svg" xmlns:xlink="http://www.w3.org/1999/xlink" x="0px" y="0px"
	 viewBox="0 0 451.001 451.001" style="enable-background:new 0 0 451.001 451.001;" xml:space="preserve">
<g>
	<g>
		<path d="M406.989,248.191c0.673-4.522,1.012-9.094,1.012-13.69c0-51.28-41.72-93-93-93c-7.281,0-14.453,0.836-21.444,2.494
			c-10.332-19.948-25.37-37.061-44.059-50.007c-23.126-16.02-50.27-24.487-78.497-24.487c-76.093,0-138,61.907-138,138
			c0,14.618,2.24,28.859,6.674,42.519C15.92,261.131,0,285.18,0,312.5c0,38.047,30.953,69,69,69h313.001c38.047,0,69-30.953,69-69
			C451.001,283.605,432.935,258.296,406.989,248.191z"/>
	</g>
</g>
<g>
</g>
<g>
</g>
<g>
</g>
<g>
</g>
<g>
</g>
<g>
</g>
<g>
</g>
<g>
</g>
<g>
</g>
<g>
</g>
<g>
</g>
<g>
</g>
<g>
</g>
<g>
</g>
<g>
</g>
</svg>
